Secret Window*2004*[BluRay][1080p][ENG, POL]

General information:
Country: USA
Release: 12 March 2004
Genre: Action, Mystery, Thriller 
Director: David Koepp
Screenplay: David Koepp, Stephen King (novel)
Original Music: James Newton Howard
Cinematography by: Fred Murphy
Duration: 1h 35mn
Language: English, Polish
Subtitles: English, Polish
Rating: 7.3/10 - 30137 votes 

Cast:
Johnny Depp  ...  Mort Rainey  
John Turturro  ...  John Shooter  
Maria Bello  ...  Amy Rainey  
Timothy Hutton  ...  Ted Milner  
Charles S. Dutton  ...  Ken Karsch  
Len Cariou  ...  Sheriff Dave Newsome  
Joan Heney  ...  Mrs. Garvey  
John Dunn-Hill  ...  Tom Greenleaf (as John Dunn Hill)  
Vlasta Vrana  ...  Fire Chief Wickersham  
Matt Holland  ...  Detective Bradley  
Gillian Ferrabee  ...  Fran Evans  
Bronwen Mantel  ...  Greta Bowie  
Elizabeth Marleau  ...  Juliet Stoker  
Kyle Allatt  ...  Busboy  
Richard Jutras  ...  Motel Manager  

Plot:
A writer is accused for plagiarism by a strange man, who then starts haunting him for "justice." 

Specifications:
General
Format                           : Matroska
Overall bit rate                 : 11.1 Mbps

Video
Format                           : AVC
Format/Info                      : Advanced Video Codec
Format profile                   : High@L4.0
Format settings, CABAC           : Yes
Format settings, ReFrames        : 3 frames
Format settings, GOP             : M=4, N=32
Muxing mode                      : Container profile=Unknown@4.0
Codec ID                         : V_MPEG4/ISO/AVC
Bit rate                         : 9 809 Kbps
Width                            : 1 920 pixels
Height                           : 1 080 pixels
Display aspect ratio             : 16:9
Frame rate                       : 23.976 fps

Audio 1
Format                           : AC-3
Format/Info                      : Audio Coding 3
Mode extension                   : CM (complete main)
Codec ID                         : A_AC3
Bit rate mode                    : Constant
Bit rate                         : 640 Kbps
Channel(s)                       : 6 channels
Channel positions                : Front: L C R, Side: L R, LFE
Sampling rate                    : 48.0 KHz
Bit depth                        : 16 bits
Stream size                      : 439 MiB (6%)
Title                            : English

Audio 2
ID                               : 3
Format                           : AC-3
Format/Info                      : Audio Coding 3
Mode extension                   : CM (complete main)
Codec ID                         : A_AC3
Bit rate mode                    : Constant
Bit rate                         : 640 Kbps
Channel(s)                       : 6 channels
Channel positions                : Front: L C R, Side: L R, LFE
Sampling rate                    : 48.0 KHz
Bit depth                        : 16 bits
Stream size                      : 439 MiB (6%)
Language                         : Polish

Text 1
Format                           : UTF-8
Codec ID                         : S_TEXT/UTF8
Codec ID/Info                    : UTF-8 Plain Text
Title                            : English

Text 2
Format                           : UTF-8
Codec ID                         : S_TEXT/UTF8
Codec ID/Info                    : UTF-8 Plain Text
Language                         : Polish
